<svg viewBox="0 0 179.92 39.688" xmlns="http://www.w3.org/2000/svg"><defs><radialGradient id="a" cx="0" cy="0" r="1" gradientTransform="matrix(-1.8224 -20.561 20.561 -1.8224 69.266 177.15)" gradientUnits="userSpaceOnUse"><stop stop-color="#3e80cb" offset="0"/><stop stop-color="#1777c1" offset=".13152"/><stop stop-color="#115b94" offset=".5"/><stop stop-color="#0c3f66" offset="1"/></radialGradient></defs><g transform="translate(-55.8635 -158.6505) scale(1.0208)"><circle cx="74.25" cy="174.82" r="5.4658" fill="#970e17" fill-rule="evenodd" style="font-variation-settings:normal"/><path d="M75.938 194.22c-4.9732.44038-10.113-1.0098-14.238-4.466-8.2437-6.9043-9.3366-19.226-2.4342-27.473 3.3105-3.9499 8.1163-6.3749 13.447-6.7981 5.221-.41919 10.338 1.1767 14.042 4.3788 1.9633 1.7192 1.714 3.8209.65353 5.0447-1.1549 1.3339-3.4043 1.8069-5.1706.2938-5.477-4.3436-13.229-3.6643-17.609 1.5717-2.1456 2.563-3.1639 5.8012-2.8687 9.1359.29562 3.3261 1.867 6.3426 4.43 8.4882 2.6429 2.211 6.1344 3.2858 9.5384 2.899 3.2462-.34838 6.1084-1.9179 8.0559-4.4291.57833-.73728.63476-1.4373.14794-1.835-.412-.33967-1.1238-.34092-1.7811.4282-1.6678 2.0833-4.1066 3.4008-6.8368 3.668-2.7867.27225-5.5987-.5904-7.7398-2.3903-4.382-3.661-4.9637-10.206-1.2925-14.582 3.6647-4.3811 10.208-4.9611 14.587-1.2924.511.42779.57868 1.1868.15103 1.7047-.42837.50902-1.1947.57654-1.7063.1512-3.355-2.8087-8.3693-2.3638-11.175.99173-2.8112 3.3544-2.3668 8.3684.99203 11.179 1.6452 1.3773 3.8081 2.0601 5.9426 1.8334 2.0805-.20598 3.9338-1.2028 5.2151-2.8057 1.6456-1.9157 3.8927-1.814 5.1836-.75339 1.2988 1.0656 1.7884 3.1914.21798 5.1924-2.3468 3.0266-5.7945 4.931-9.7002 5.3488-4.0808.44923-8.2065-.82584-11.352-3.458-3.0583-2.5573-4.9352-6.1541-5.2883-10.125-.35114-3.9755.86329-7.8438 3.4244-10.905 5.2283-6.2398 14.455-7.0747 21.006-1.8867.7623.65388 1.4872.34902 1.799-.01.54776-.62749-.02585-1.2932-.41406-1.6354-3.2033-2.7745-7.6766-4.1625-12.26-3.7913-4.6954.36405-8.8917 2.4907-11.782 5.9409-6.0477 7.224-5.0876 18.019 2.1324 24.064 7.2226 6.045 18.017 5.0874 24.064-2.1325.42838-.50902 1.1915-.57624 1.7019-.15038.51512.42824.58212 1.1934.15184 1.7038-3.4504 4.1215-8.253 6.4586-13.234 6.9009" fill="url(#a)"/></g><g fill="#0c3f66" font-family="'Maven Pro'" font-size="15.875" stroke-width=".019555"><text transform="translate(-369.736 271.21) scale(1.6257)" x="296.05353" y="-151.14279" font-weight="500" letter-spacing="-.8951" style="font-feature-settings:normal;font-variant-alternates:normal;font-variant-caps:normal;font-variant-east-asian:normal;font-variant-ligatures:normal;font-variant-numeric:normal;font-variant-position:normal;font-variation-settings:normal;inline-size:0;line-height:1.25;shape-margin:0;shape-padding:0;text-decoration-color:#000000;text-decoration-line:none;text-decoration-style:solid;text-indent:0;text-orientation:mixed;text-transform:none;white-space:normal"><tspan x="296.05353" y="-151.14279" font-weight="bold" style="font-feature-settings:normal;font-variant-alternates:normal;font-variant-caps:normal;font-variant-east-asian:normal;font-variant-ligatures:normal;font-variant-numeric:normal;font-variant-position:normal;inline-size:0;line-height:1.25;shape-margin:0;shape-padding:0;text-decoration-color:#000000;text-decoration-line:none;text-decoration-style:solid;text-indent:0;text-orientation:mixed;text-transform:none;white-space:normal">cilindri</tspan></text><text transform="translate(-325.606 271.18) scale(1.6257)" x="225.80464" y="-151.14279" font-weight="bold" letter-spacing="-.81373" style="font-feature-settings:normal;font-variant-alternates:normal;font-variant-caps:normal;font-variant-east-asian:normal;font-variant-ligatures:normal;font-variant-numeric:normal;font-variant-position:normal;font-variation-settings:normal;inline-size:0;line-height:1.25;shape-margin:0;shape-padding:0;text-decoration-color:#000000;text-decoration-line:none;text-decoration-style:solid;text-indent:0;text-orientation:mixed;text-transform:none;white-space:normal"><tspan x="225.80464" y="-151.14279" font-weight="500" style="font-feature-settings:normal;font-variant-alternates:normal;font-variant-caps:normal;font-variant-east-asian:normal;font-variant-ligatures:normal;font-variant-numeric:normal;font-variant-position:normal;inline-size:0;line-height:1.25;shape-margin:0;shape-padding:0;text-decoration-color:#000000;text-decoration-line:none;text-decoration-style:solid;text-indent:0;text-orientation:mixed;text-transform:none;white-space:normal">centro</tspan></text></g></svg>
